<?xml version="1.0" encoding="utf-8"?>
<!-- Generator: Adobe Illustrator 25.0.0, SVG Export Plug-In . SVG Version: 6.00 Build 0)  -->
<svg version="1.1" id="Camada_1" xmlns="http://www.w3.org/2000/svg" xmlns:xlink="http://www.w3.org/1999/xlink" x="0px" y="0px"
	 viewBox="0 0 595.28 841.89" style="enable-background:new 0 0 595.28 841.89;" xml:space="preserve">
<style type="text/css">
	.st0{fill:#00A19A;}
	.st1{fill:#E7216D;}
</style>
<path class="st0" d="M255.73,192.22c-0.56-1.78-0.77-3.81-0.57-6.11l-9.17-7.25C248.94,183.82,252.21,188.28,255.73,192.22z"/>
<path class="st0" d="M405,304.88"/>
<g>
	<g>
		<g>
			<path class="st1" d="M260.98,60.62c-18.3,20.79-19.57,46.65-18.87,60.62c1.15,22.89,5.88,41.75,12.76,56.37l13.7,8.16
				c1.37,0.72,2.73,1.44,4.1,2.16l4.94-24.63l0.68,27.59l12.59,6.62c-3.67,4.71-12.75,6.63-19.59,3.78
				c31.88,30.45,78.63,7.33,81.75-80.05c0.51-14.3,1.27-40.2-16.44-60.86c-4.26-4.97-17.84-20.81-38.1-20.63
				C279.21,39.92,266.38,54.49,260.98,60.62z M304.32,197.52c8.07-4.25,16.15-8.49,24.22-12.74l13.87-8.26l-10.13,9.81
				C333.46,205.48,310.7,205.71,304.32,197.52z"/>
			<g>
				<path class="st1" d="M356.12,157.15c-4.19-1.55-7.4,3.69-15.8,10.62c-20.36,16.76-33.95,11.51-35.48,21.17
					c-0.43,2.69-0.35,5.48,0.13,8.26c7.87-4.14,15.74-8.28,23.61-12.42l13.87-8.26l-10.13,9.81c1.14,18.39-19.78,19.33-27.1,12.14
					c2.97,13.53,15.58,26.45,29.01,26.46C361.04,225.04,373.93,172.21,356.12,157.15z"/>
				<path class="st1" d="M262.98,186.12l-9.92-9.61l15.55,9.27c1.37,0.72,2.73,1.44,4.1,2.16l1.76-8.75
					c-5.4-2.05-11.99-5.23-19.5-11.41c-8.41-6.92-11.61-12.17-15.8-10.62c-17.82,15.06-4.92,67.89,21.9,67.77
					c13.43-0.01,26.04-12.94,29.01-26.46C282.71,205.68,261.67,204.7,262.98,186.12z"/>
			</g>
		</g>
		<path class="st1" d="M287.21,262.42c-4.19,2.87-26.93-10.67-26.82-28.42c0.11-16.4,19.7-29.59,37.24-29.59
			c20.57,0,37.24,13.25,37.24,29.59c0,16.84-19.98,30.6-24.67,27.86c-4.12-2.4,4.32-17.18-3.71-28.61
			c-2.87-4.08-6.88-6.38-10.25-7.75c-2.91,2.4-6.41,6.04-8.5,11.25C282.67,249.4,290.33,260.28,287.21,262.42z"/>
	</g>
	<g>
		<g>
			<path class="st1" d="M329.04,208.6c1.64,3.97,3.6,7.59,6.09,10.87c2.51,3.25,5.52,6.16,8.98,8.61c6.88,4.95,15.82,7.61,24.4,7.02
				c8.64-0.51,16.59-4.51,22.1-11.31c2.76-3.4,4.95-7.48,6.48-11.97c1.49-4.53,2.35-9.41,2.82-14.42l0.07-0.83
				c0.77-4.05,1.42-8.12,1.86-12.24c0.45-4.13,0.66-8.28,0.9-12.7c0.07-1.13,0.12-2.21,0.23-3.39l0.15-1.74l0.22-1.8
				c0.35-2.42,0.81-4.99,1.81-7.53c0.21-0.64,0.49-1.25,0.79-1.86c0.3-0.6,0.56-1.24,0.91-1.8l1.05-1.7c0.35-0.58,0.73-1,1.1-1.51
				c0.76-0.99,1.45-1.88,2.23-2.81l1.28-1.42l1.37-1.33c3.77-3.44,8.44-5.94,13.46-6.94c5-1.03,10.32-0.47,14.89,1.58
				c4.6,2.03,8.31,5.47,10.98,9.34c1.36,1.94,2.41,4.03,3.32,6.14l0.64,1.6c0.18,0.54,0.38,1.07,0.53,1.63
				c0.15,0.55,0.17,1.15,0.04,1.78c-0.14,0.64-0.33,1.28-0.85,2.01c-1.66-0.63-2.35-1.47-2.93-2.36c-0.25-0.45-0.44-0.93-0.66-1.4
				l-0.72-1.35c-1-1.77-2.1-3.47-3.41-4.96c-2.58-2.99-5.79-5.29-9.3-6.4c-3.5-1.13-7.25-1.08-10.65,0.02
				c-3.41,1.08-6.45,3.17-8.81,5.85l-0.85,1.04l-0.79,1.09c-0.53,0.79-1.08,1.69-1.56,2.46c-0.23,0.4-0.55,0.81-0.71,1.19
				l-0.54,1.13c-0.2,0.37-0.28,0.77-0.44,1.15c-0.15,0.38-0.28,0.76-0.36,1.17c-0.86,3.12-0.75,7.01-0.6,11.25
				c0.18,4.24,0.39,8.77,0.34,13.29c-0.04,4.54-0.31,9.09-0.74,13.62l0.07-0.83c-0.04,6.02-0.55,12.16-2,18.3
				c-1.5,6.13-4.02,12.23-7.76,17.77c-3.72,5.53-8.71,10.44-14.56,14.01c-5.83,3.61-12.42,5.87-19.09,6.85
				c-13.39,1.95-27.17-0.93-38.85-7.96c-5.82-3.54-11.07-8.25-15.1-13.91c-4.06-5.63-6.93-12.16-8.15-18.87L329.04,208.6z"/>
			<path class="st1" d="M286.52,214.01c-1.22,6.71-4.09,13.24-8.15,18.87c-4.04,5.66-9.28,10.37-15.1,13.91
				c-11.68,7.03-25.46,9.92-38.85,7.96c-6.68-0.98-13.27-3.24-19.09-6.85c-5.85-3.57-10.84-8.47-14.56-14.01
				c-3.74-5.54-6.25-11.65-7.76-17.77c-1.45-6.14-1.96-12.28-2-18.3l0.07,0.83c-0.43-4.53-0.7-9.09-0.74-13.62
				c-0.05-4.52,0.17-9.05,0.34-13.29c0.15-4.24,0.26-8.13-0.6-11.25c-0.08-0.41-0.21-0.79-0.36-1.17c-0.15-0.38-0.24-0.78-0.44-1.15
				l-0.54-1.13c-0.16-0.38-0.48-0.79-0.71-1.19c-0.49-0.78-1.04-1.67-1.56-2.46l-0.79-1.09l-0.85-1.04
				c-2.36-2.68-5.4-4.77-8.81-5.85c-3.4-1.09-7.15-1.15-10.65-0.02c-3.51,1.11-6.72,3.41-9.3,6.4c-1.31,1.49-2.41,3.19-3.41,4.96
				l-0.72,1.35c-0.23,0.46-0.41,0.94-0.66,1.4c-0.57,0.89-1.27,1.73-2.93,2.36c-0.52-0.72-0.71-1.37-0.85-2.01
				c-0.13-0.63-0.1-1.23,0.04-1.78c0.15-0.55,0.35-1.09,0.53-1.63l0.64-1.6c0.91-2.11,1.96-4.2,3.32-6.14
				c2.67-3.88,6.39-7.31,10.98-9.34c4.57-2.06,9.89-2.61,14.89-1.58c5.02,1,9.69,3.5,13.46,6.94l1.37,1.33l1.28,1.42
				c0.79,0.93,1.47,1.82,2.23,2.81c0.37,0.51,0.75,0.92,1.1,1.51l1.05,1.7c0.36,0.56,0.61,1.2,0.91,1.8
				c0.3,0.61,0.58,1.23,0.79,1.86c1,2.54,1.46,5.11,1.81,7.53l0.22,1.8l0.15,1.74c0.11,1.18,0.16,2.26,0.23,3.39
				c0.24,4.43,0.46,8.57,0.9,12.7c0.44,4.12,1.09,8.19,1.86,12.24l0.07,0.83c0.47,5.01,1.33,9.9,2.82,14.42
				c1.53,4.5,3.72,8.57,6.48,11.97c5.51,6.8,13.47,10.8,22.1,11.31c8.59,0.59,17.52-2.07,24.4-7.02c3.46-2.45,6.47-5.36,8.98-8.61
				c2.5-3.28,4.45-6.9,6.09-10.87L286.52,214.01z"/>
		</g>
		<g>
			<path class="st1" d="M260.51,230.47c-5.04,1.77-10.38,2.49-15.73,2.56c-2.68,0.03-5.36-0.13-8.03-0.47
				c-1.33-0.17-2.66-0.37-3.98-0.63l-1.97-0.41c-0.67-0.13-1.22-0.28-1.84-0.43c-2.42-0.57-4.9-1.22-7.55-2.05
				c-2.62-0.84-5.52-1.89-8.39-3.8c-1.42-0.95-2.8-2.12-3.96-3.46c-0.3-0.32-0.58-0.66-0.84-1.01c-0.25-0.34-0.56-0.7-0.76-1.04
				c-0.43-0.68-0.88-1.34-1.26-2.05c-1.58-2.8-2.51-5.86-3-8.78c-0.49-2.93-0.6-5.76-0.48-8.47c0.11-2.71,0.38-5.31,0.73-7.85
				c0.36-2.54,0.77-5.03,1.19-7.48c0.42-2.53,0.92-5.06,1.47-7.53c0.54-2.47,1.14-4.89,1.58-7.19c0.44-2.31,0.67-4.44,0.14-6.16
				c-0.54-1.73-1.93-3.36-3.85-4.4c-0.95-0.53-2.02-0.94-3.13-1.28c-1.11-0.36-2.23-0.79-3.43-1.79c1.29-0.87,2.64-1.06,3.97-0.93
				c1.32,0.16,2.66,0.45,3.97,0.92c2.63,0.94,5.2,2.84,6.65,5.69c0.74,1.42,1.06,2.96,1.24,4.39c0.18,1.45,0.17,2.82,0.14,4.14
				c-0.08,2.64-0.3,5.12-0.45,7.58c-0.16,2.45-0.25,4.86-0.28,7.27c-0.03,2.49-0.05,4.95-0.02,7.37c0.01,4.82,0.3,9.5,1.38,13.37
				c1.11,3.79,3.18,6.99,5.67,8.21c1.33,0.76,3.17,1.4,5.31,1.94c2.13,0.54,4.5,1,6.92,1.54l3.47,0.77
				c1.12,0.21,2.23,0.48,3.36,0.67c2.25,0.42,4.51,0.8,6.79,1.13c4.57,0.69,9.2,1.12,14.03,1.72L260.51,230.47z"/>
			<path class="st1" d="M335.71,223.55c4.83-0.6,9.46-1.03,14.03-1.72c2.28-0.34,4.54-0.71,6.79-1.13c1.13-0.19,2.24-0.46,3.36-0.67
				l3.47-0.77c2.42-0.54,4.79-0.99,6.92-1.54c2.14-0.54,3.98-1.18,5.31-1.94c2.49-1.22,4.56-4.42,5.67-8.21
				c1.09-3.86,1.38-8.55,1.38-13.37c0.03-2.42,0.01-4.88-0.02-7.37c-0.03-2.42-0.12-4.82-0.28-7.27c-0.15-2.45-0.37-4.94-0.45-7.58
				c-0.03-1.32-0.04-2.69,0.14-4.14c0.17-1.43,0.5-2.97,1.24-4.39c1.46-2.85,4.02-4.75,6.65-5.69c1.32-0.48,2.65-0.77,3.97-0.92
				c1.33-0.13,2.68,0.06,3.97,0.93c-1.19,1-2.32,1.43-3.43,1.79c-1.11,0.33-2.18,0.74-3.13,1.28c-1.91,1.04-3.31,2.67-3.85,4.4
				c-0.53,1.72-0.3,3.85,0.14,6.16c0.44,2.3,1.04,4.72,1.58,7.19c0.55,2.47,1.04,5,1.47,7.53c0.41,2.46,0.82,4.95,1.19,7.48
				c0.35,2.54,0.62,5.14,0.73,7.85c0.12,2.71,0.01,5.54-0.48,8.47c-0.49,2.92-1.43,5.98-3,8.78c-0.38,0.7-0.84,1.37-1.26,2.05
				c-0.2,0.33-0.51,0.69-0.76,1.04c-0.26,0.35-0.54,0.69-0.84,1.01c-1.16,1.34-2.54,2.51-3.96,3.46c-2.87,1.91-5.77,2.96-8.39,3.8
				c-2.65,0.83-5.13,1.48-7.55,2.05c-0.61,0.15-1.17,0.29-1.84,0.43l-1.97,0.41c-1.32,0.26-2.65,0.45-3.98,0.63
				c-2.66,0.33-5.35,0.49-8.03,0.47c-5.35-0.07-10.7-0.79-15.73-2.56L335.71,223.55z"/>
		</g>
		<g>
			<path class="st1" d="M341.79,239.07c8.24,15.35,21.55,28.34,37.97,34.37c0.89,0.38,1.93,0.68,3,1.02
				c1.06,0.32,2.15,0.62,3.25,0.9c2.19,0.56,4.42,1.05,6.65,1.46c4.47,0.82,8.99,1.3,13.45,1.37c8.91,0.15,17.7-1.44,24.81-5.76
				c0.86-0.57,1.76-1.1,2.56-1.75c0.85-0.59,1.61-1.3,2.4-1.98c1.52-1.36,3.02-3.06,4.36-4.75c2.69-3.43,4.85-7.23,5.79-11
				c0.94-3.8,0.59-7.36-1.42-10.72c-1.97-3.35-5.25-6.26-8.92-7.79c-1.84-0.77-3.78-1.18-5.69-1.17c-1.91,0.01-3.8,0.46-5.66,1.34
				c-3.7,1.7-7.06,4.99-8.41,8.58c-0.11,0.44-0.31,0.9-0.35,1.33c-0.03,0.22-0.09,0.44-0.11,0.66l-0.01,0.64
				c-0.03,0.22,0.02,0.42,0.04,0.63c0.04,0.2,0.03,0.42,0.09,0.62c0.1,0.41,0.23,0.84,0.44,1.26c0.77,1.7,2.2,3.28,3.88,4.18
				c0.84,0.45,1.74,0.74,2.66,0.84c0.48,0.05,0.89,0.07,1.36,0c0.47-0.06,0.95-0.17,1.44-0.32c0.49-0.16,0.97-0.33,1.42-0.57
				c0.45-0.23,0.84-0.55,1.23-0.87c0.39-0.32,0.79-0.62,1.21-0.94c0.21-0.16,0.43-0.31,0.75-0.39c0.39-0.04,0.48-0.28,1.79,0.23
				c0.97,1.02,0.69,1.28,0.71,1.72c-0.05,0.4-0.23,0.73-0.44,1.02c-0.41,0.59-0.91,1.13-1.49,1.56c-0.58,0.44-1.21,0.8-1.84,1.16
				c-0.63,0.36-1.27,0.68-1.94,0.94c-0.67,0.27-1.37,0.48-2.11,0.64c-0.74,0.16-1.57,0.21-2.32,0.19c-1.53-0.04-3.05-0.41-4.42-1.03
				c-2.76-1.25-4.97-3.33-6.46-5.99c-0.38-0.66-0.68-1.39-0.94-2.15c-0.13-0.38-0.19-0.78-0.28-1.18c-0.09-0.4-0.17-0.8-0.18-1.2
				l-0.06-1.2c0.01-0.39,0.05-0.78,0.09-1.17c0.04-0.8,0.26-1.51,0.41-2.27c0.82-2.91,2.36-5.4,4.19-7.55
				c1.84-2.15,4.03-3.96,6.54-5.37c2.48-1.41,5.4-2.4,8.41-2.64c3-0.25,6,0.18,8.77,1.09c5.55,1.87,10.3,5.45,13.72,10.31
				c1.7,2.42,3.03,5.33,3.64,8.39c0.64,3.06,0.59,6.2,0.09,9.12c-1.03,5.89-3.59,10.98-6.61,15.51c-1.55,2.27-3.16,4.41-5.14,6.49
				c-0.99,1.02-1.98,2.04-3.07,2.95c-1.05,0.97-2.2,1.8-3.34,2.66c-4.64,3.29-9.83,5.71-15.13,7.24c-5.31,1.59-10.72,2.38-16.08,2.7
				c-5.36,0.3-10.69,0.12-15.94-0.45c-2.63-0.28-5.25-0.66-7.86-1.13c-1.31-0.24-2.61-0.5-3.93-0.79c-1.3-0.3-2.66-0.59-4.08-1.05
				c-5.25-1.54-10.34-3.64-15.22-6.15c-4.86-2.56-9.44-5.61-13.73-9c-8.58-6.82-15.85-15.08-21.75-24.34L341.79,239.07z"/>
			<path class="st1" d="M271.33,249.54c-5.89,9.26-13.17,17.52-21.75,24.34c-4.29,3.4-8.88,6.44-13.73,9
				c-4.89,2.51-9.97,4.61-15.22,6.15c-1.42,0.46-2.77,0.75-4.08,1.05c-1.32,0.29-2.62,0.55-3.93,0.79
				c-2.61,0.47-5.23,0.85-7.86,1.13c-5.26,0.57-10.58,0.75-15.94,0.45c-5.36-0.32-10.77-1.11-16.08-2.7
				c-5.3-1.54-10.5-3.95-15.13-7.24c-1.14-0.86-2.29-1.69-3.34-2.66c-1.1-0.91-2.08-1.94-3.07-2.95c-1.99-2.08-3.6-4.22-5.14-6.49
				c-3.02-4.53-5.58-9.62-6.61-15.51c-0.5-2.92-0.54-6.06,0.09-9.12c0.62-3.07,1.94-5.97,3.64-8.39c3.42-4.86,8.17-8.43,13.72-10.31
				c2.77-0.92,5.77-1.35,8.77-1.09c3.01,0.24,5.93,1.22,8.41,2.64c2.51,1.41,4.7,3.22,6.54,5.37c1.83,2.15,3.37,4.63,4.19,7.55
				c0.15,0.75,0.38,1.47,0.41,2.27c0.03,0.39,0.08,0.78,0.09,1.17l-0.06,1.2c-0.01,0.4-0.09,0.8-0.18,1.2
				c-0.09,0.4-0.16,0.8-0.28,1.18c-0.25,0.77-0.56,1.49-0.94,2.15c-1.49,2.65-3.7,4.74-6.46,5.99c-1.37,0.62-2.89,0.99-4.42,1.03
				c-0.75,0.02-1.58-0.03-2.32-0.19c-0.75-0.15-1.45-0.37-2.11-0.64c-0.67-0.26-1.31-0.58-1.94-0.94c-0.63-0.36-1.26-0.72-1.84-1.16
				c-0.58-0.43-1.08-0.97-1.49-1.56c-0.21-0.29-0.39-0.61-0.44-1.02c0.01-0.44-0.26-0.7,0.71-1.72c1.31-0.51,1.39-0.27,1.79-0.23
				c0.33,0.08,0.55,0.23,0.75,0.39c0.42,0.32,0.82,0.62,1.21,0.94c0.39,0.32,0.78,0.64,1.23,0.87c0.44,0.24,0.93,0.42,1.42,0.57
				c0.49,0.15,0.98,0.26,1.44,0.32c0.47,0.06,0.88,0.05,1.36,0c0.92-0.1,1.82-0.39,2.66-0.84c1.67-0.9,3.1-2.47,3.88-4.18
				c0.21-0.42,0.33-0.85,0.44-1.26c0.05-0.21,0.05-0.42,0.09-0.62c0.03-0.21,0.07-0.41,0.04-0.63l-0.01-0.64
				c-0.02-0.22-0.08-0.44-0.11-0.66c-0.03-0.44-0.24-0.89-0.35-1.33c-1.35-3.59-4.72-6.87-8.41-8.58c-1.87-0.88-3.76-1.33-5.66-1.34
				c-1.91-0.02-3.85,0.4-5.69,1.17c-3.68,1.53-6.95,4.43-8.92,7.79c-2.01,3.35-2.36,6.92-1.42,10.72c0.94,3.78,3.1,7.58,5.79,11
				c1.34,1.7,2.84,3.4,4.36,4.75c0.78,0.68,1.55,1.38,2.4,1.98c0.8,0.65,1.7,1.18,2.56,1.75c7.11,4.32,15.91,5.91,24.81,5.76
				c4.46-0.08,8.98-0.55,13.45-1.37c2.24-0.41,4.46-0.89,6.65-1.46c1.1-0.28,2.18-0.58,3.25-0.9c1.07-0.33,2.1-0.63,3-1.02
				c16.42-6.03,29.73-19.02,37.97-34.37L271.33,249.54z"/>
		</g>
		<g>
			<path class="st1" d="M333.41,219.05c-3.8,15.81-3.6,32.09,1.97,46.69c1.41,3.63,3.13,7.28,5.2,10.74c2.05,3.5,4.43,6.9,7.2,10.67
				l2.15,2.93c0.36,0.48,0.76,1.06,1.13,1.58c0.38,0.55,0.75,1.05,1.14,1.64c0.78,1.21,1.55,2.31,2.3,3.7
				c0.37,0.68,0.76,1.29,1.11,2.03l1.03,2.21c0.35,0.71,0.6,1.58,0.89,2.36c0.27,0.81,0.57,1.59,0.75,2.45l0.56,2.52
				c0.17,0.84,0.22,1.69,0.32,2.53c0.24,1.71,0.15,3.3,0.13,4.93c-0.05,1.61-0.33,3.2-0.53,4.78c-0.17,0.79-0.37,1.58-0.56,2.36
				c-0.2,0.78-0.38,1.57-0.67,2.31l-0.83,2.23c-0.27,0.75-0.64,1.4-0.96,2.1c-0.65,1.42-1.39,2.62-2.12,3.86
				c-0.37,0.63-0.74,1.14-1.12,1.71c-0.37,0.54-0.75,1.14-1.12,1.62c-2.96,4.11-5.57,7.26-7.2,10.43
				c-1.68,3.15-2.66,6.45-2.94,10.23c-0.36,4.06-0.14,7.92,0.81,11.26c0.47,1.67,1.13,3.2,2,4.53c0.88,1.33,1.92,2.47,3.32,3.49
				c2.78,2.05,6.59,3.55,10.11,3.83c1.75,0.15,3.42-0.04,4.63-0.55c0.3-0.13,0.63-0.23,0.86-0.4l0.42-0.21
				c0.11-0.1,0.22-0.19,0.35-0.27c0.52-0.34,0.96-0.82,1.42-1.45c0.42-0.65,0.78-1.48,1.03-2.41c0.22-0.94,0.39-1.98,0.43-3.07
				c0.12-2.18-0.03-4.51-0.34-6.94c1.75,1.72,3.21,3.77,4.25,6.14c1.03,2.35,1.75,5.1,1.32,8.27c-0.24,1.56-0.79,3.24-1.81,4.63
				c-0.25,0.36-0.51,0.71-0.78,1.05c-0.29,0.31-0.6,0.6-0.91,0.9c-0.62,0.62-1.32,1.07-2.02,1.52c-2.86,1.72-5.91,2.36-8.77,2.55
				c-2.88,0.17-5.66-0.12-8.37-0.74c-2.71-0.63-5.36-1.57-7.91-2.98c-2.56-1.39-5.04-3.37-7.02-5.68c-2-2.31-3.54-4.92-4.68-7.59
				c-2.27-5.36-3.05-10.89-3.21-16.07c-0.02-1.38-0.12-2.76,0.04-4.18c0.11-1.41,0.17-2.83,0.47-4.25l0.39-2.13
				c0.14-0.71,0.36-1.39,0.55-2.09c0.2-0.69,0.38-1.4,0.61-2.08l0.75-2c2.07-5.36,4.99-9.73,6.99-13.42
				c2.07-3.71,2.97-6.51,3.14-9.29c-0.06-0.73,0.02-1.44-0.07-2.14c-0.12-0.69-0.12-1.42-0.34-1.99c-0.23-1.25-0.82-2.24-1.48-3.38
				c-0.2-0.29-0.4-0.57-0.58-0.86c-0.18-0.29-0.48-0.62-0.71-0.93c-0.43-0.6-1.1-1.32-1.67-1.99c-0.29-0.34-0.67-0.73-1-1.09
				c-0.35-0.38-0.65-0.72-1.05-1.12l-2.32-2.39c-3.25-3.28-6.82-7-10.1-11.07c-1.67-2.02-3.22-4.16-4.79-6.31l-2.24-3.3
				c-0.74-1.11-1.44-2.27-2.14-3.42c-2.73-4.64-5.18-9.49-7.23-14.5c-2.03-5.01-3.77-10.14-5.13-15.35
				c-1.38-5.2-2.43-10.46-3.27-15.75c-0.81-5.28-1.34-10.56-1.79-15.87L333.41,219.05z"/>
			<path class="st1" d="M301.9,216.62c-0.45,5.31-0.98,10.59-1.79,15.87c-0.84,5.28-1.89,10.54-3.27,15.75
				c-1.35,5.21-3.1,10.34-5.13,15.35c-2.05,5.01-4.51,9.86-7.23,14.5c-0.7,1.15-1.4,2.31-2.14,3.42l-2.24,3.3
				c-1.57,2.14-3.12,4.29-4.79,6.31c-3.29,4.07-6.86,7.79-10.1,11.07l-2.32,2.39c-0.4,0.4-0.7,0.74-1.05,1.12
				c-0.33,0.36-0.71,0.75-1,1.09c-0.57,0.67-1.24,1.39-1.67,1.99c-0.23,0.31-0.53,0.64-0.71,0.93c-0.19,0.29-0.38,0.58-0.58,0.86
				c-0.66,1.14-1.25,2.13-1.48,3.38c-0.22,0.57-0.22,1.31-0.34,1.99c-0.09,0.7-0.01,1.42-0.07,2.14c0.16,2.78,1.07,5.58,3.14,9.29
				c2,3.69,4.93,8.07,6.99,13.42l0.75,2c0.23,0.68,0.41,1.39,0.61,2.08c0.18,0.7,0.41,1.38,0.55,2.09l0.39,2.13
				c0.3,1.42,0.36,2.84,0.47,4.25c0.16,1.42,0.06,2.8,0.04,4.18c-0.16,5.18-0.94,10.71-3.21,16.07c-1.14,2.67-2.68,5.28-4.68,7.59
				c-1.98,2.31-4.46,4.28-7.02,5.68c-2.55,1.41-5.2,2.35-7.91,2.98c-2.71,0.62-5.49,0.91-8.37,0.74c-2.86-0.19-5.9-0.83-8.77-2.55
				c-0.7-0.46-1.4-0.9-2.02-1.52c-0.31-0.3-0.62-0.59-0.91-0.9c-0.27-0.34-0.53-0.69-0.78-1.05c-1.03-1.4-1.57-3.07-1.81-4.63
				c-0.43-3.17,0.3-5.92,1.32-8.27c1.04-2.36,2.5-4.42,4.25-6.14c-0.31,2.42-0.46,4.76-0.34,6.94c0.04,1.09,0.21,2.12,0.43,3.07
				c0.25,0.94,0.61,1.77,1.03,2.41c0.46,0.63,0.9,1.11,1.42,1.45c0.13,0.08,0.25,0.17,0.35,0.27l0.42,0.21
				c0.23,0.18,0.56,0.28,0.86,0.4c1.22,0.5,2.88,0.69,4.63,0.55c3.52-0.28,7.33-1.78,10.11-3.83c1.39-1.02,2.44-2.15,3.32-3.49
				c0.87-1.33,1.53-2.86,2-4.53c0.94-3.35,1.17-7.21,0.81-11.26c-0.28-3.78-1.26-7.08-2.94-10.23c-1.62-3.17-4.23-6.32-7.2-10.43
				c-0.36-0.48-0.74-1.08-1.12-1.62c-0.37-0.57-0.75-1.08-1.12-1.71c-0.73-1.24-1.48-2.44-2.12-3.86c-0.32-0.7-0.69-1.35-0.96-2.1
				l-0.83-2.23c-0.3-0.74-0.47-1.53-0.67-2.31c-0.19-0.78-0.39-1.57-0.56-2.36c-0.2-1.58-0.48-3.17-0.53-4.78
				c-0.02-1.62-0.11-3.22,0.13-4.93c0.1-0.84,0.16-1.69,0.32-2.53l0.56-2.52c0.17-0.86,0.48-1.64,0.75-2.45
				c0.29-0.78,0.54-1.65,0.89-2.36l1.03-2.21c0.35-0.74,0.73-1.35,1.11-2.03c0.76-1.39,1.53-2.49,2.3-3.7
				c0.39-0.6,0.76-1.09,1.14-1.64c0.37-0.52,0.77-1.11,1.13-1.58l2.15-2.93c2.77-3.77,5.14-7.16,7.2-10.67
				c2.07-3.46,3.79-7.11,5.2-10.74c5.56-14.6,5.77-30.88,1.97-46.69L301.9,216.62z"/>
		</g>
	</g>
</g>
</svg>
